<svg xmlns="http://www.w3.org/2000/svg" viewBox="0 0 256 256" width="256" height="256">
  <defs>
    <linearGradient id="bg" x1="0" y1="0" x2="1" y2="1">
      <stop offset="0" stop-color="#2b7fe0"/>
      <stop offset="1" stop-color="#1560c4"/>
    </linearGradient>
  </defs>
  <circle cx="128" cy="128" r="124" fill="url(#bg)" stroke="#0d1b2e" stroke-width="6"/>
  <!-- wings -->
  <path d="M40 150 L118 120 L118 150 L60 178 Z" fill="#f5c518" stroke="#12233a" stroke-width="5" stroke-linejoin="round"/>
  <path d="M216 150 L138 120 L138 150 L196 178 Z" fill="#f5c518" stroke="#12233a" stroke-width="5" stroke-linejoin="round"/>
  <!-- fuselage -->
  <ellipse cx="128" cy="132" rx="34" ry="70" fill="#f4f6f8" stroke="#12233a" stroke-width="6"/>
  <path d="M128 56 q10 8 10 22 h-20 q0 -14 10 -22Z" fill="#f4f6f8" stroke="#12233a" stroke-width="6"/>
  <!-- silly face -->
  <g stroke="#12233a" stroke-width="7" stroke-linecap="round">
    <path d="M108 120 l14 14 M122 120 l-14 14"/>
    <path d="M134 120 l14 14 M148 120 l-14 14"/>
  </g>
  <path d="M110 150 q18 22 36 0" fill="#12233a"/>
  <path d="M124 163 q4 12 8 0 q6 8 0 16 q-8 4 -8 -4Z" fill="#e8607a"/>
</svg>
